<?xml version="1.0" encoding="UTF-8"?><svg id="_이어_2" xmlns="http://www.w3.org/2000/svg" viewBox="0 0 237.83 148.51"><defs><style>.cls-1{opacity:.2;}.cls-1,.cls-2,.cls-3{fill:#2c67ff;}.cls-2{opacity:.4;}.cls-3{opacity:.8;}</style></defs><g id="_이어_1-2"><g><path class="cls-1" d="M122.32,148.51H12.88c-8.93,0-14.5-6-12.45-13.41L25.57,44.33c4.64-12.02,10.95-13.41,19.88-13.41h109.44c8.93,0,14.5,6,12.45,13.41l-25.15,90.77c-2.05,7.41-10.95,13.41-19.88,13.41Z"/><path class="cls-2" d="M94.44,127.31h99.12c12.27,0,15.65-11,12.37-18.79l-30.91-59.05c-11.81-23.17-18.81-18.17-32.04-18.79H43.85c-11.64-.38-17.8,8.41-12.37,18.79l30.91,59.05c12.82,23.79,19.78,18.79,32.04,18.79Z"/><path class="cls-3" d="M192.38,127.27H82.94c-8.93,0-14.5-6.5-12.45-14.51L95.63,14.51c2.05-8.02,10.95-14.51,19.88-14.51h109.44c8.93,0,14.5,6.5,12.45,14.51l-25.15,98.24c-2.05,8.02-10.95,14.51-19.88,14.51Z"/></g></g></svg>