<svg width="1514" height="371" viewBox="0 0 1514 371" fill="none" xmlns="http://www.w3.org/2000/svg">
<path d="M283.267 113.708C279.229 39.3818 205.2 12.2627 133.864 12.2627H0.612305V370.837H1513.49V12.2627H1395.04C1312.94 12.2627 1259.1 40.3862 1245.64 113.708C1229.49 101.655 1189.11 102.659 1166.23 113.708C1148.73 36.3686 1020.86 45.4083 1010.09 113.708C996.635 108.686 973.753 110.695 967.023 124.756C927.99 113.708 898.378 120.739 868.767 135.805C824.35 124.756 778.586 135.805 762.435 163.928C722.055 128.774 674.946 124.756 625.145 135.805C582.072 117.196 567.268 108.686 520.159 113.708C501.315 30.3421 366.718 52.4391 364.026 113.708C337.106 104.668 306.149 105.673 283.267 113.708Z" fill="url(#paint0_radial_365_12634)"/>
<path d="M221.242 35.1284C213.51 15.9287 206.081 8.53485 184.448 4.48112H124.352V220H1423.17V4.48112H1340.99C1315.28 7.89854 1302.6 11.9362 1293.16 35.1284C1255.14 28.2077 1236.75 35.1284 1218.35 52.9237C1170.52 25.2419 1105.51 24.2532 1067.49 64.7871C1025.79 4.48023 916.642 -25.1779 824.658 35.1284C774.373 4.48112 720.409 10.4125 681.163 35.1284C613.708 -17.2689 510.685 -12.325 450.589 64.7871C408.89 28.2085 343.887 25.2427 299.735 52.9237C277.659 35.1284 250.677 30.1858 221.242 35.1284Z" fill="url(#paint1_linear_365_12634)"/>
<path d="M909.336 81.9069C894.87 30.9869 861.118 26.8579 817.033 26.8589H767.438V220.903H1257.88V26.8589H1190.37C1135.01 26.0318 1108.75 26.8592 1094.63 81.9069C1061.91 72.2729 1037.46 92.9159 1034.01 126.633C1017.13 115.279 986.829 112.183 964.442 126.633C964.442 92.2278 935.855 76.4015 909.336 81.9069Z" fill="url(#paint2_radial_365_12634)"/>
<defs>
<radialGradient id="paint0_radial_365_12634" cx="0" cy="0" r="1" gradientUnits="userSpaceOnUse" gradientTransform="translate(757.051 81.5671) rotate(90) scale(179.789 758.558)">
<stop stop-color="#4579FF"/>
<stop offset="0.9999" stop-color="#71A9FD" stop-opacity="0.0104167"/>
<stop offset="1" stop-color="#FF8F70" stop-opacity="0"/>
</radialGradient>
<linearGradient id="paint1_linear_365_12634" x1="759.656" y1="-108.228" x2="759.656" y2="219.994" gradientUnits="userSpaceOnUse">
<stop stop-color="#95A9F0"/>
<stop offset="1" stop-color="#376FFF" stop-opacity="0"/>
</linearGradient>
<radialGradient id="paint2_radial_365_12634" cx="0" cy="0" r="1" gradientUnits="userSpaceOnUse" gradientTransform="translate(1003.01 84.5133) rotate(84.2834) scale(96.8155 190.252)">
<stop stop-color="#215FFF"/>
<stop offset="1" stop-color="#7098FF" stop-opacity="0"/>
</radialGradient>
</defs>
</svg>
