<svg width="67" height="67" viewBox="0 0 67 67" fill="none" xmlns="http://www.w3.org/2000/svg">
<path d="M3.75683 41.4338H15.2456C15.9447 41.4338 16.2942 41.4338 16.5567 41.624C16.8192 41.8142 16.9282 42.1463 17.146 42.8106L19.9774 51.4443C20.1953 52.1086 20.3042 52.4407 20.5667 52.6309C20.8292 52.8211 21.1788 52.8211 21.8778 52.8211H45.1209C45.82 52.8211 46.1696 52.8211 46.4321 52.6309C46.6946 52.4407 46.8035 52.1086 47.0214 51.4443L49.8528 42.8106C50.0706 42.1463 50.1795 41.8142 50.442 41.624C50.7046 41.4338 51.0541 41.4338 51.7532 41.4338H63.2419C64.1847 41.4338 64.6561 41.4338 64.949 41.7267C65.2419 42.0196 65.2419 42.491 65.2419 43.4338V60.2083C65.2419 62.0939 65.2419 63.0368 64.6561 63.6225C64.0704 64.2083 63.1276 64.2083 61.2419 64.2083H5.75684C3.87122 64.2083 2.92841 64.2083 2.34262 63.6225C1.75684 63.0368 1.75684 62.0939 1.75684 60.2083V43.4338C1.75684 42.491 1.75684 42.0196 2.04973 41.7267C2.34262 41.4338 2.81403 41.4338 3.75683 41.4338Z" fill="url(#paint0_linear_366_12759)"/>
<path d="M65.2419 41.4338H51.7342C51.0437 41.4338 50.6985 41.4338 50.4376 41.6204C50.1767 41.8069 50.0651 42.1335 49.8417 42.7868L47.0324 51.004C46.8091 51.6573 46.6974 51.984 46.4365 52.1705C46.1756 52.357 45.8304 52.357 45.14 52.357H21.8588C21.1684 52.357 20.8232 52.357 20.5623 52.1705C20.3014 51.984 20.1897 51.6573 19.9664 51.004L17.1571 42.7868C16.9337 42.1335 16.822 41.8069 16.5612 41.6204C16.3003 41.4338 15.955 41.4338 15.2646 41.4338H1.75684" stroke="url(#paint1_linear_366_12759)"/>
<path d="M12.9601 26.3699L3.02475 33.0811C2.56104 33.3943 2.32918 33.5509 2.1614 33.7569C2.01286 33.9392 1.90148 34.1488 1.83356 34.3739C1.75684 34.6282 1.75684 34.908 1.75684 35.4676V61.3283C1.75684 62.3364 1.75684 62.8404 1.95302 63.2255C2.1256 63.5642 2.40096 63.8395 2.73965 64.0121C3.12469 64.2083 3.62874 64.2083 4.63684 64.2083H62.3619C63.37 64.2083 63.8741 64.2083 64.2591 64.0121C64.5978 63.8395 64.8732 63.5642 65.0457 63.2255C65.2419 62.8404 65.2419 62.3364 65.2419 61.3283V35.4676C65.2419 34.908 65.2419 34.6282 65.1652 34.3739C65.0973 34.1488 64.9859 33.9392 64.8374 33.7569C64.6696 33.5509 64.4377 33.3943 63.974 33.0811L54.0387 26.3699" stroke="url(#paint2_linear_366_12759)" stroke-width="3" stroke-linecap="round"/>
<circle cx="33.5005" cy="20.7169" r="14.9439" stroke="url(#paint3_linear_366_12759)" stroke-width="3" stroke-linecap="round"/>
<ellipse cx="29.0192" cy="17.7294" rx="1.49377" ry="1.49377" fill="url(#paint4_linear_366_12759)"/>
<ellipse cx="37.9816" cy="17.7294" rx="1.49377" ry="1.49377" fill="url(#paint5_linear_366_12759)"/>
<path fill-rule="evenodd" clip-rule="evenodd" d="M28.1742 25.1982C27.8959 25.1982 27.7567 25.1982 27.6818 25.2988C27.6068 25.3993 27.6437 25.5233 27.7174 25.7714C28.3859 28.0198 30.7216 29.6795 33.5004 29.6795C36.2792 29.6795 38.6149 28.0198 39.2834 25.7715C39.3571 25.5233 39.394 25.3993 39.319 25.2988C39.2441 25.1982 39.1049 25.1982 38.8266 25.1982H28.1742Z" fill="url(#paint6_linear_366_12759)"/>
<defs>
<linearGradient id="paint0_linear_366_12759" x1="54.068" y1="62.9013" x2="53.2917" y2="41.0165" gradientUnits="userSpaceOnUse">
<stop stop-color="#0891F2"/>
<stop offset="1" stop-color="#055EEA"/>
</linearGradient>
<linearGradient id="paint1_linear_366_12759" x1="54.068" y1="51.7301" x2="53.8893" y2="41.2235" gradientUnits="userSpaceOnUse">
<stop stop-color="#0891F2"/>
<stop offset="1" stop-color="#055EEA"/>
</linearGradient>
<linearGradient id="paint2_linear_366_12759" x1="54.068" y1="62.0367" x2="51.9298" y2="25.7567" gradientUnits="userSpaceOnUse">
<stop stop-color="#0891F2"/>
<stop offset="1" stop-color="#055EEA"/>
</linearGradient>
<linearGradient id="paint3_linear_366_12759" x1="42.212" y1="32.6176" x2="39.6786" y2="6.99821" gradientUnits="userSpaceOnUse">
<stop stop-color="#0891F2"/>
<stop offset="1" stop-color="#055EEA"/>
</linearGradient>
<linearGradient id="paint4_linear_366_12759" x1="29.9871" y1="19.0517" x2="29.7056" y2="16.2051" gradientUnits="userSpaceOnUse">
<stop stop-color="#0891F2"/>
<stop offset="1" stop-color="#055EEA"/>
</linearGradient>
<linearGradient id="paint5_linear_366_12759" x1="38.9495" y1="19.0517" x2="38.668" y2="16.2051" gradientUnits="userSpaceOnUse">
<stop stop-color="#0891F2"/>
<stop offset="1" stop-color="#055EEA"/>
</linearGradient>
<linearGradient id="paint6_linear_366_12759" x1="37.2974" y1="29.4224" x2="37.1346" y2="25.1169" gradientUnits="userSpaceOnUse">
<stop stop-color="#0891F2"/>
<stop offset="1" stop-color="#055EEA"/>
</linearGradient>
</defs>
</svg>
