<svg xmlns="http://www.w3.org/2000/svg" xmlns:xlink="http://www.w3.org/1999/xlink" viewBox="0 0 319 80.63"><defs><style>.cls-1{fill:url(#무제_그라디언트_39);}.cls-2{fill:url(#무제_그라디언트_39-2);}.cls-3{fill:url(#무제_그라디언트_39-3);}.cls-4{fill:url(#무제_그라디언트_39-4);}.cls-5{fill:url(#무제_그라디언트_39-5);}.cls-6{fill:url(#무제_그라디언트_39-9);}.cls-7{fill:url(#무제_그라디언트_39-10);}</style><linearGradient id="무제_그라디언트_39" x1="7.33" y1="17.56" x2="67.7" y2="77.93" gradientUnits="userSpaceOnUse"><stop offset="0" stop-color="#5c8aff"/><stop offset="0.02" stop-color="#5988ff"/><stop offset="0.19" stop-color="#4579ff"/><stop offset="0.38" stop-color="#376fff"/><stop offset="0.61" stop-color="#2f69ff"/><stop offset="1" stop-color="#2c67ff"/></linearGradient><linearGradient id="무제_그라디언트_39-2" x1="92.86" y1="13.52" x2="153.28" y2="73.95" xlink:href="#무제_그라디언트_39"/><linearGradient id="무제_그라디언트_39-3" x1="254.86" y1="14.52" x2="315.28" y2="74.95" xlink:href="#무제_그라디언트_39"/><linearGradient id="무제_그라디언트_39-4" x1="187.86" y1="50.28" x2="211.85" y2="74.27" xlink:href="#무제_그라디언트_39"/><linearGradient id="무제_그라디언트_39-5" x1="165.77" y1="5.82" x2="175.63" y2="15.68" xlink:href="#무제_그라디언트_39"/><linearGradient id="무제_그라디언트_39-9" x1="193.97" y1="22.97" x2="228.56" y2="57.56" xlink:href="#무제_그라디언트_39"/><linearGradient id="무제_그라디언트_39-10" x1="180.11" y1="11.47" x2="198.61" y2="29.97" xlink:href="#무제_그라디언트_39"/></defs><g id="레이어_2" data-name="레이어 2"><g id="레이어_1-2" data-name="레이어 1"><path class="cls-1" d="M75,65.48A12.55,12.55,0,0,1,62.5,78,12.55,12.55,0,0,1,50,65.48v-25a12.09,12.09,0,0,0-3.67-8.9,11.92,11.92,0,0,0-8.76-3.67A12.61,12.61,0,0,0,25,40.64V65.48a12,12,0,0,1-3.68,8.83A12,12,0,0,1,12.5,78a12,12,0,0,1-8.82-3.67A12,12,0,0,1,0,65.48V40.42A36.19,36.19,0,0,1,11,13.87a36.19,36.19,0,0,1,26.55-11,35.93,35.93,0,0,1,26.48,11A36.32,36.32,0,0,1,75,40.42Z"/><path class="cls-2" d="M157,65.05a12.63,12.63,0,0,1-12.58,12.58h-25a36.29,36.29,0,0,1-26.49-11A36.19,36.19,0,0,1,81.84,38.66,36.9,36.9,0,0,1,92.05,14.35a37.61,37.61,0,0,1,53.85-.81A35.88,35.88,0,0,1,157,40ZM132.15,40.2a11.81,11.81,0,0,0-3.63-8.66,12.49,12.49,0,0,0-17.61,0,11.81,11.81,0,0,0-3.63,8.66,12,12,0,0,0,3.63,8.8,11.81,11.81,0,0,0,8.66,3.63H132Z"/><path class="cls-3" d="M319,66.05a12.63,12.63,0,0,1-12.58,12.58h-25a36.27,36.27,0,0,1-26.49-11,36.19,36.19,0,0,1-11.08-27.94,36.89,36.89,0,0,1,10.22-24.32,37.61,37.61,0,0,1,53.84-.8A35.88,35.88,0,0,1,319,41ZM294.15,41.2a11.81,11.81,0,0,0-3.63-8.66,12.49,12.49,0,0,0-17.61,0,11.81,11.81,0,0,0-3.63,8.66,12,12,0,0,0,3.63,8.8,11.81,11.81,0,0,0,8.66,3.63H294Z"/><path class="cls-4" d="M198.1,59.69l-.4-.21A8.48,8.48,0,0,1,194,48.08l2.44-4.81A11.1,11.1,0,0,0,189,53.73V69.52a11.1,11.1,0,0,0,11.1,11.11h.8A11.1,11.1,0,0,0,212,69.52V53.73a11.05,11.05,0,0,0-.23-2.24L209.51,56A8.49,8.49,0,0,1,198.1,59.69Z"/><path class="cls-5" d="M174.24,4.15,173.93,4a6.51,6.51,0,0,0-8.74,2.86L164.3,8.6a6.52,6.52,0,0,0,2.86,8.75l.31.15a6.5,6.5,0,0,0,8.74-2.85l.89-1.75A6.5,6.5,0,0,0,174.24,4.15Z"/><path class="cls-1" d="M75,65.48A12.55,12.55,0,0,1,62.5,78,12.55,12.55,0,0,1,50,65.48v-25a12.09,12.09,0,0,0-3.67-8.9,11.92,11.92,0,0,0-8.76-3.67A12.61,12.61,0,0,0,25,40.64V65.48a12,12,0,0,1-3.68,8.83A12,12,0,0,1,12.5,78a12,12,0,0,1-8.82-3.67A12,12,0,0,1,0,65.48V40.42A36.19,36.19,0,0,1,11,13.87a36.19,36.19,0,0,1,26.55-11,35.93,35.93,0,0,1,26.48,11A36.32,36.32,0,0,1,75,40.42Z"/><path class="cls-2" d="M157,65.05a12.63,12.63,0,0,1-12.58,12.58h-25a36.29,36.29,0,0,1-26.49-11A36.19,36.19,0,0,1,81.84,38.66,36.9,36.9,0,0,1,92.05,14.35a37.61,37.61,0,0,1,53.85-.81A35.88,35.88,0,0,1,157,40ZM132.15,40.2a11.81,11.81,0,0,0-3.63-8.66,12.49,12.49,0,0,0-17.61,0,11.81,11.81,0,0,0-3.63,8.66,12,12,0,0,0,3.63,8.8,11.81,11.81,0,0,0,8.66,3.63H132Z"/><path class="cls-3" d="M319,66.05a12.63,12.63,0,0,1-12.58,12.58h-25a36.27,36.27,0,0,1-26.49-11,36.19,36.19,0,0,1-11.08-27.94,36.89,36.89,0,0,1,10.22-24.32,37.61,37.61,0,0,1,53.84-.8A35.88,35.88,0,0,1,319,41ZM294.15,41.2a11.81,11.81,0,0,0-3.63-8.66,12.49,12.49,0,0,0-17.61,0,11.81,11.81,0,0,0-3.63,8.66,12,12,0,0,0,3.63,8.8,11.81,11.81,0,0,0,8.66,3.63H294Z"/><path class="cls-6" d="M227.6,1.33a12.31,12.31,0,0,0-16.54,5.41L190.83,46.62a12.33,12.33,0,0,0-1.07,3.09,11.18,11.18,0,0,0-.76,4V69.52a11.1,11.1,0,0,0,11.1,11.11h.8A11.1,11.1,0,0,0,212,69.52V59a11.73,11.73,0,0,0,.77-1.28L233,17.87A12.32,12.32,0,0,0,227.6,1.33Z"/><path class="cls-7" d="M193.56,34.32l9.26-18.24a9.91,9.91,0,0,0-4.35-13.31h0a9.91,9.91,0,0,0-13.31,4.35l-9.25,18.24a9.9,9.9,0,1,0,17.65,9Z"/><path class="cls-5" d="M176.21,14.65l.89-1.75a6.5,6.5,0,0,0-2.86-8.75L173.93,4a6.51,6.51,0,0,0-8.74,2.86L164.3,8.6a6.52,6.52,0,0,0,2.86,8.75l.31.15A6.5,6.5,0,0,0,176.21,14.65Z"/></g></g></svg>