<svg width="1514" height="226" viewBox="0 0 1514 226" fill="none" xmlns="http://www.w3.org/2000/svg">
<path d="M283.267 113.708C279.229 39.3818 205.2 12.2627 133.864 12.2627H0.612305V225.413H1513.49V12.2627H1395.04C1312.94 12.2627 1259.1 40.3862 1245.64 113.708C1229.49 101.655 1189.11 102.659 1166.23 113.708C1148.73 36.3686 1020.86 45.4083 1010.09 113.708C996.635 108.686 973.753 110.695 967.023 124.756C927.99 113.708 898.378 120.739 868.767 135.805C824.35 124.756 778.586 135.805 762.435 163.928C722.055 128.774 674.946 124.756 625.145 135.805C582.072 117.196 567.268 108.686 520.159 113.708C501.315 30.3421 366.718 52.4391 364.026 113.708C337.106 104.668 306.149 105.673 283.267 113.708Z" fill="url(#paint0_radial_365_12634)"/>
<path d="M113.471 35.1284C104.465 15.9287 95.8111 8.53485 70.6128 4.48112H0.612305V220H1513.49V4.48112H1417.77C1387.82 7.89854 1373.05 11.9362 1362.06 35.1284C1317.77 28.2077 1296.35 35.1284 1274.92 52.9237C1219.2 25.2419 1143.48 24.2532 1099.19 64.7871C1050.62 4.48023 923.48 -25.1779 816.336 35.1284C757.764 4.48112 694.906 10.4125 649.192 35.1284C570.62 -17.2689 450.617 -12.325 380.617 64.7871C332.045 28.2085 256.329 25.2427 204.9 52.9237C179.186 35.1284 147.757 30.1858 113.471 35.1284Z" fill="url(#paint1_linear_365_12634)"/>
<path d="M909.336 81.9069C894.87 30.9869 861.118 26.8579 817.033 26.8589H767.438V220.903H1257.88V26.8589H1190.37C1135.01 26.0318 1108.75 26.8592 1094.63 81.9069C1061.91 72.2729 1037.46 92.9159 1034.01 126.633C1017.13 115.279 986.829 112.183 964.442 126.633C964.442 92.2278 935.855 76.4015 909.336 81.9069Z" fill="url(#paint2_radial_365_12634)"/>
<defs>
<radialGradient id="paint0_radial_365_12634" cx="0" cy="0" r="1" gradientUnits="userSpaceOnUse" gradientTransform="translate(757.051 81.5671) rotate(90) scale(179.789 758.558)">
<stop stop-color="#4579FF"/>
<stop offset="0.9999" stop-color="#71A9FD" stop-opacity="0.0104167"/>
<stop offset="1" stop-color="#FF8F70" stop-opacity="0"/>
</radialGradient>
<linearGradient id="paint1_linear_365_12634" x1="740.621" y1="-108.228" x2="740.621" y2="219.994" gradientUnits="userSpaceOnUse">
<stop stop-color="#95A9F0"/>
<stop offset="1" stop-color="#376FFF" stop-opacity="0"/>
</linearGradient>
<radialGradient id="paint2_radial_365_12634" cx="0" cy="0" r="1" gradientUnits="userSpaceOnUse" gradientTransform="translate(1003.01 84.5133) rotate(84.2834) scale(96.8155 190.252)">
<stop stop-color="#215FFF"/>
<stop offset="1" stop-color="#7098FF" stop-opacity="0"/>
</radialGradient>
</defs>
</svg>
