<svg width="480" height="120" viewBox="0 0 480 120" fill="none" xmlns="http://www.w3.org/2000/svg">
<g clip-path="url(#clip0_596_12953)">
<rect width="480" height="120" rx="24" fill="white"/>
<rect width="480" height="120" fill="black"/>
<path d="M93.3129 44.3845L51.5399 20.2229C51.015 19.9145 50.3546 19.9316 49.8466 20.2401C49.3217 20.5485 49 21.0969 49 21.7138C49 21.7138 49.0169 23.9414 49.0339 27.6085L79.4619 58.4017L93.3129 44.3845Z" fill="url(#paint0_linear_596_12953)"/>
<path d="M49.0338 27.6074C49.0846 40.8363 49.2369 72.949 49.3047 88.9368L79.4787 58.4006L49.0338 27.6074Z" fill="url(#paint1_linear_596_12953)"/>
<path d="M117.221 58.2134L93.3125 44.3848L79.4446 58.4019L95.0905 74.2355L117.238 61.1779C117.763 60.8695 118.085 60.304 118.085 59.7042C118.085 59.0874 117.746 58.5219 117.221 58.2134V58.2134Z" fill="url(#paint2_linear_596_12953)"/>
<path d="M49.2877 88.9389C49.3215 94.6452 49.3385 98.2951 49.3385 98.2951C49.3385 98.912 49.6602 99.4775 50.1851 99.7688C50.71 100.077 51.3534 100.077 51.8784 99.7688L95.1075 74.2535L79.4617 58.4199L49.2877 88.9389Z" fill="url(#paint3_linear_596_12953)"/>
<path fill-rule="evenodd" clip-rule="evenodd" d="M150.009 72.7176C150.009 60.7467 160.071 51 172.042 51C178.66 51 183.369 53.5988 186.922 56.9832L182.739 61.1669C180.199 58.7827 176.755 56.933 172.037 56.933C163.295 56.933 156.463 63.9712 156.463 72.7131C156.463 81.4549 163.295 88.5023 172.033 88.5023C177.701 88.5023 180.925 86.2278 182.994 84.1542C184.689 82.4597 185.799 80.0254 186.228 76.6866H172.042V70.7674H192.01C192.22 71.827 192.33 73.0967 192.33 74.4715C192.33 78.9155 191.111 84.4283 187.187 88.3516C183.369 92.3252 178.5 94.4444 172.037 94.4444C160.062 94.4444 150 84.7069 150 72.7268L150.009 72.7176ZM208.471 66.4695C200.738 66.4695 194.426 72.3523 194.426 80.4501C194.426 88.5069 200.734 94.4307 208.471 94.4307C216.208 94.4307 222.506 88.4978 222.506 80.4456C222.506 72.3477 216.203 66.465 208.471 66.4695V66.4695ZM208.471 88.9317C204.237 88.9317 200.579 85.4376 200.579 80.4547C200.579 75.4215 204.232 71.9777 208.471 71.9777C212.705 71.9777 216.359 75.4169 216.359 80.4547C216.359 85.4331 212.709 88.9317 208.471 88.9317ZM239.095 66.4695C231.362 66.4695 225.059 72.3523 225.059 80.4501C225.059 88.5069 231.362 94.4307 239.095 94.4307C246.827 94.4307 253.13 88.4978 253.13 80.4456C253.13 72.3477 246.832 66.465 239.095 66.4695V66.4695ZM239.095 88.9317C234.861 88.9317 231.202 85.4376 231.202 80.4547C231.202 75.4215 234.856 71.9777 239.095 71.9777C243.329 71.9777 246.987 75.4169 246.987 80.4547C246.987 85.4331 243.329 88.9317 239.095 88.9317ZM276.679 67.3191V69.5936H276.469C275.094 67.9448 272.445 66.465 269.111 66.465C262.119 66.465 255.702 72.6126 255.702 80.5095C255.702 88.3425 262.114 94.4398 269.111 94.4398C272.445 94.4398 275.094 92.96 276.469 91.2656H276.679V93.2752C276.679 98.6235 273.82 101.487 269.212 101.487C265.448 101.487 263.119 98.7834 262.164 96.5134L256.811 98.7377C258.346 102.442 262.429 107 269.207 107C276.405 107 282.498 102.757 282.498 92.4302V67.3145L276.679 67.3191ZM269.637 88.9317C265.403 88.9317 261.845 85.3783 261.845 80.5095C261.845 75.5859 265.398 71.9823 269.637 71.9823C273.82 71.9823 277.104 75.5814 277.104 80.5095C277.109 85.3783 273.825 88.9317 269.637 88.9317ZM286.741 52.4844H292.889V93.5903H286.741V52.4844ZM309.738 88.9317C306.614 88.9317 304.385 87.4975 302.964 84.6977L321.663 76.9561L321.019 75.3667C319.859 72.2472 316.305 66.4695 309.048 66.4695C301.845 66.4695 295.858 72.1376 295.858 80.4547C295.858 88.2877 301.791 94.4353 309.738 94.4353C316.15 94.4353 319.859 90.5211 321.393 88.2374L316.625 85.0631C315.031 87.397 312.857 88.9362 309.738 88.9317V88.9317ZM309.258 71.8727C311.693 71.8727 313.757 73.0922 314.447 74.8369L301.941 80.0299C301.786 74.6268 306.129 71.8727 309.258 71.8727V71.8727Z" fill="white"/>
<path fill-rule="evenodd" clip-rule="evenodd" d="M348.638 52.4844H333.94V93.5903H340.074V78.0203H348.642C355.443 78.0203 362.129 73.0967 362.129 65.2501C362.129 57.4171 355.447 52.4889 348.651 52.4889L348.638 52.4844ZM348.797 72.2974H340.074V58.2027H348.797C353.383 58.2027 355.996 62.0073 355.996 65.2501C355.996 68.438 353.383 72.2974 348.797 72.2974V72.2974ZM371.643 93.5903V52.4844H365.509V93.5903H371.643ZM399.198 93.5172V77.76C399.198 70.4614 393.745 66.3919 386.706 66.3919C382.271 66.3919 377.672 68.3513 375.768 72.6857L381.212 74.9556C382.376 72.6857 384.541 71.9412 386.82 71.9412C389.99 71.9412 393.215 73.8458 393.265 77.2347V77.6595C392.155 77.0246 389.78 76.0701 386.866 76.0701C380.997 76.0701 375.023 79.2946 375.023 85.3235C375.023 90.8271 379.837 94.3668 385.231 94.3668C389.36 94.3668 391.63 92.517 393.055 90.3521H393.265V93.5264H399.193L399.198 93.5172ZM385.975 88.9225C383.966 88.9225 381.162 87.9177 381.162 85.4376C381.162 82.2633 384.656 81.0393 387.67 81.0393C390.369 81.0393 391.634 81.6194 393.279 82.4141C392.808 86.1045 389.689 88.8768 385.975 88.9225V88.9225ZM420.769 67.2916L413.736 85.1088H413.526L406.227 67.2916H399.618L410.561 92.2019L404.318 106.055H410.717L427.584 67.2916H420.769Z" fill="white"/>
<path d="M170.224 15.184V44.912H174.512V15.184H170.224ZM173.552 26.16V29.648H178.8V26.16H173.552ZM152.432 34.256V37.776H154.928C160.08 37.776 164.144 37.648 168.624 36.848L168.208 33.328C163.856 34.096 159.92 34.256 154.928 34.256H152.432ZM152.432 17.936V35.952H156.656V21.36H166.256V17.936H152.432ZM180.718 29.616V32.976H207.566V29.616H180.718ZM192.206 31.824V38.064H196.526V31.824H192.206ZM183.854 40.912V44.336H204.622V40.912H183.854ZM183.854 35.472V41.776H188.142V35.472H183.854ZM194.126 15.76C187.726 15.76 183.47 18.16 183.47 21.904C183.47 25.68 187.726 28.048 194.126 28.048C200.494 28.048 204.782 25.68 204.782 21.904C204.782 18.16 200.494 15.76 194.126 15.76ZM194.126 19.12C197.87 19.12 200.206 20.08 200.206 21.904C200.206 23.728 197.87 24.656 194.126 24.656C190.382 24.656 188.046 23.728 188.046 21.904C188.046 20.08 190.382 19.12 194.126 19.12ZM210.187 38.128V41.584H237.003V38.128H210.187ZM221.419 32.528V39.536H225.675V32.528H221.419ZM213.195 17.136V20.496H229.771V23.664H213.259V31.984H217.483V26.992H233.995V17.136H213.195ZM213.259 30.288V33.712H234.667V30.288H213.259ZM242.729 28.88V32.272H263.561V28.88H242.729ZM239.625 37.808V41.296H266.441V37.808H239.625ZM242.729 17.648V30.288H246.953V21.104H263.337V17.648H242.729ZM288.038 15.216V44.848H292.262V15.216H288.038ZM291.302 26.768V30.32H296.55V26.768H291.302ZM268.902 19.6V22.992H286.15V19.6H268.902ZM277.574 24.656C273.254 24.656 270.054 27.6 270.054 31.728C270.054 35.856 273.254 38.8 277.574 38.8C281.894 38.8 285.094 35.856 285.094 31.728C285.094 27.6 281.894 24.656 277.574 24.656ZM277.574 28.112C279.59 28.112 281.03 29.456 281.03 31.728C281.03 34 279.59 35.344 277.574 35.344C275.558 35.344 274.118 34 274.118 31.728C274.118 29.456 275.558 28.112 277.574 28.112ZM275.43 15.696V20.88H279.686V15.696H275.43ZM318.884 15.216V44.848H323.172V15.216H318.884ZM310.148 18.288V19.056C310.148 26.992 307.076 32.368 298.564 36.464L300.772 39.856C311.3 34.768 314.372 27.344 314.372 18.288H310.148ZM300.132 18.288V21.648H312.164V18.288H300.132Z" fill="white"/>
</g>
<defs>
<linearGradient id="paint0_linear_596_12953" x1="49" y1="39.2085" x2="93.3207" y2="39.2085" gradientUnits="userSpaceOnUse">
<stop stop-color="#63BE6B"/>
<stop offset="0.506" stop-color="#5BBC6A"/>
<stop offset="1" stop-color="#4AB96A"/>
</linearGradient>
<linearGradient id="paint1_linear_596_12953" x1="49.0256" y1="58.2795" x2="79.4611" y2="58.2795" gradientUnits="userSpaceOnUse">
<stop stop-color="#3EC6F2"/>
<stop offset="1" stop-color="#45AFE3"/>
</linearGradient>
<linearGradient id="paint2_linear_596_12953" x1="79.4609" y1="59.3211" x2="118.081" y2="59.3211" gradientUnits="userSpaceOnUse">
<stop stop-color="#FAA51A"/>
<stop offset="0.387" stop-color="#FAB716"/>
<stop offset="0.741" stop-color="#FAC412"/>
<stop offset="1" stop-color="#FAC80F"/>
</linearGradient>
<linearGradient id="paint3_linear_596_12953" x1="49.2951" y1="79.2094" x2="95.1068" y2="79.2094" gradientUnits="userSpaceOnUse">
<stop stop-color="#EC3B50"/>
<stop offset="1" stop-color="#E7515B"/>
</linearGradient>
<clipPath id="clip0_596_12953">
<rect width="480" height="120" rx="24" fill="white"/>
</clipPath>
</defs>
</svg>
