<svg width="500" height="900" viewBox="0 0 500 900" fill="none" xmlns="http://www.w3.org/2000/svg">
<g clip-path="url(#clip0_507_12767)">
<rect width="500" height="900" fill="white"/>
<g filter="url(#filter0_d_507_12767)">
<path d="M-3.93403e-05 -0.000488281L0 900L500.001 900L500.001 -0.000510137L-3.93403e-05 -0.000488281Z" fill="url(#paint0_linear_507_12767)"/>
</g>
<path d="M270.575 516.221C273.236 516.227 275.787 517.26 277.671 519.096C279.554 520.931 280.617 523.419 280.628 526.017C280.617 528.614 279.554 531.102 277.671 532.938C275.787 534.773 273.236 535.806 270.575 535.813L250.5 535.813C249.171 535.789 247.85 536.032 246.621 536.526C245.392 537.021 244.28 537.757 243.354 538.689C242.407 539.575 241.656 540.641 241.149 541.822C240.643 543.003 240.39 544.273 240.407 545.554C240.411 546.857 240.679 548.146 241.196 549.348C241.713 550.549 242.468 551.639 243.418 552.555C244.368 553.47 245.494 554.193 246.732 554.682C247.969 555.172 249.294 555.417 250.629 555.405L270.575 555.405C271.896 555.385 273.207 555.631 274.427 556.127C275.647 556.623 276.749 557.359 277.665 558.289C278.618 559.181 279.372 560.255 279.882 561.444C280.392 562.633 280.646 563.912 280.628 565.201C280.648 566.488 280.396 567.766 279.889 568.955C279.383 570.144 278.631 571.219 277.681 572.113C276.763 573.044 275.658 573.781 274.436 574.277C273.213 574.773 271.899 575.018 270.575 574.997L250.452 574.997C246.484 575.057 242.545 574.323 238.878 572.84C235.212 571.358 231.895 569.158 229.133 566.376C226.283 563.68 224.029 560.444 222.51 556.865C220.991 553.287 220.239 549.442 220.3 545.569C220.234 541.704 220.984 537.867 222.504 534.296C224.023 530.726 226.28 527.499 229.133 524.818C231.901 522.045 235.219 519.853 238.885 518.375C242.55 516.896 246.486 516.163 250.452 516.221L270.575 516.221Z" fill="white"/>
<path d="M270.235 451.96C272.911 451.97 275.474 453.012 277.366 454.859C279.258 456.705 280.326 459.207 280.337 461.819L280.337 481.411C280.387 485.275 279.629 489.109 278.111 492.678C276.592 496.247 274.344 499.477 271.504 502.17C268.618 505.106 265.119 507.402 261.244 508.902C257.368 510.401 253.208 511.07 249.045 510.861C241.75 510.631 234.799 507.782 229.524 502.86C226.597 500.157 224.253 496.909 222.632 493.308C221.011 489.707 220.144 485.826 220.083 481.893C220.023 477.96 220.769 474.055 222.279 470.409C223.789 466.762 226.031 463.447 228.874 460.659C231.612 457.86 234.912 455.643 238.568 454.146C242.223 452.649 246.156 451.905 250.121 451.96L270.235 451.96ZM250.281 471.434C248.984 471.419 247.698 471.664 246.502 472.153C245.306 472.642 244.226 473.366 243.327 474.279C241.46 476.113 240.411 478.594 240.411 481.179C240.411 483.765 241.46 486.246 243.327 488.08C244.226 488.993 245.306 489.716 246.502 490.206C247.698 490.695 248.984 490.939 250.281 490.924C251.596 490.946 252.901 490.704 254.116 490.215C255.331 489.726 256.431 488.999 257.347 488.08C258.283 487.203 259.024 486.149 259.526 484.981C260.027 483.814 260.278 482.559 260.262 481.293L260.262 471.552L250.281 471.434Z" fill="white"/>
<path d="M271.033 325.002C273.708 325.012 276.272 326.054 278.164 327.901C280.056 329.747 281.123 332.249 281.134 334.86L281.134 354.452C281.185 358.317 280.428 362.151 278.91 365.721C277.391 369.29 275.142 372.52 272.301 375.212C269.417 378.144 265.922 380.436 262.051 381.934C258.18 383.432 254.025 384.101 249.866 383.895C242.568 383.666 235.613 380.814 230.338 375.886C227.412 373.182 225.07 369.935 223.45 366.334C221.83 362.734 220.965 358.853 220.905 354.921C220.845 350.99 221.592 347.086 223.102 343.44C224.612 339.794 226.853 336.48 229.696 333.693C232.431 330.898 235.728 328.684 239.379 327.189C243.03 325.694 246.959 324.949 250.918 325.002L271.033 325.002ZM251.079 344.476C249.782 344.461 248.496 344.706 247.3 345.195C246.104 345.684 245.023 346.408 244.125 347.321C242.257 349.155 241.209 351.635 241.209 354.221C241.209 356.807 242.257 359.288 244.125 361.121C245.023 362.035 246.104 362.758 247.3 363.247C248.496 363.737 249.782 363.981 251.079 363.966C252.393 363.988 253.698 363.746 254.913 363.257C256.128 362.768 257.228 362.041 258.145 361.121C259.08 360.245 259.822 359.19 260.323 358.023C260.824 356.856 261.075 355.6 261.06 354.335L261.06 344.594L251.079 344.476Z" fill="white"/>
<path d="M265.931 419.747L265.762 420.061C264.942 421.629 263.517 422.816 261.8 423.359C260.084 423.903 258.216 423.76 256.608 422.961L252.746 421.048C253.355 422.75 254.49 424.224 255.995 425.269C257.499 426.313 259.299 426.876 261.145 426.879L273.824 426.879C274.995 426.88 276.155 426.656 277.237 426.219C278.32 425.782 279.303 425.142 280.132 424.334C280.96 423.526 281.618 422.567 282.066 421.511C282.514 420.455 282.745 419.323 282.745 418.18L282.745 417.553C282.745 416.41 282.514 415.278 282.066 414.222C281.618 413.166 280.96 412.207 280.132 411.399C279.303 410.591 278.32 409.951 277.237 409.514C276.155 409.077 274.995 408.853 273.824 408.854L261.145 408.854C260.541 408.854 259.938 408.915 259.347 409.035L262.968 410.806C264.574 411.61 265.788 413.002 266.344 414.679C266.899 416.355 266.751 418.178 265.931 419.747V419.747Z" fill="white"/>
<path d="M221.331 438.448L221.21 438.691C220.586 439.897 220.477 441.295 220.907 442.579C221.338 443.863 222.273 444.928 223.507 445.541L224.904 446.238C226.14 446.848 227.574 446.954 228.891 446.534C230.208 446.114 231.301 445.202 231.93 443.997L232.05 443.754C232.361 443.157 232.548 442.507 232.601 441.84C232.654 441.173 232.572 440.503 232.36 439.866C232.147 439.23 231.808 438.641 231.363 438.133C230.917 437.625 230.373 437.207 229.762 436.904L228.357 436.207C227.745 435.903 227.077 435.72 226.393 435.668C225.708 435.616 225.02 435.696 224.367 435.905C223.714 436.113 223.11 436.445 222.589 436.881C222.068 437.318 221.64 437.85 221.331 438.448V438.448Z" fill="white"/>
<path d="M270.575 516.221C273.236 516.227 275.787 517.26 277.671 519.096C279.554 520.931 280.617 523.419 280.628 526.017C280.617 528.614 279.554 531.102 277.671 532.938C275.787 534.773 273.236 535.806 270.575 535.813L250.5 535.813C249.171 535.789 247.85 536.032 246.621 536.526C245.392 537.021 244.28 537.757 243.354 538.689C242.407 539.575 241.656 540.641 241.149 541.822C240.643 543.003 240.39 544.273 240.407 545.554C240.411 546.857 240.679 548.146 241.196 549.348C241.713 550.549 242.468 551.639 243.418 552.555C244.368 553.47 245.494 554.193 246.732 554.682C247.969 555.172 249.294 555.417 250.629 555.405L270.575 555.405C271.896 555.385 273.207 555.631 274.427 556.127C275.647 556.623 276.749 557.359 277.665 558.289C278.618 559.181 279.372 560.255 279.882 561.444C280.392 562.633 280.646 563.912 280.628 565.201C280.648 566.488 280.396 567.766 279.889 568.955C279.383 570.144 278.631 571.219 277.681 572.113C276.763 573.044 275.658 573.781 274.436 574.277C273.213 574.773 271.899 575.018 270.575 574.997L250.452 574.997C246.484 575.057 242.545 574.323 238.878 572.84C235.212 571.358 231.895 569.158 229.133 566.376C226.283 563.68 224.029 560.444 222.51 556.865C220.991 553.287 220.239 549.442 220.3 545.569C220.234 541.704 220.984 537.867 222.504 534.296C224.023 530.726 226.28 527.499 229.133 524.818C231.901 522.045 235.219 519.853 238.885 518.375C242.55 516.896 246.486 516.163 250.452 516.221L270.575 516.221Z" fill="white"/>
<path d="M270.235 451.96C272.911 451.97 275.474 453.012 277.366 454.859C279.258 456.705 280.326 459.207 280.337 461.819L280.337 481.411C280.387 485.275 279.629 489.109 278.111 492.678C276.592 496.247 274.344 499.477 271.504 502.17C268.618 505.106 265.119 507.402 261.244 508.902C257.368 510.401 253.208 511.07 249.045 510.861C241.75 510.631 234.799 507.782 229.524 502.86C226.597 500.157 224.253 496.909 222.632 493.308C221.011 489.707 220.144 485.826 220.083 481.893C220.023 477.96 220.769 474.055 222.279 470.409C223.789 466.762 226.031 463.447 228.874 460.659C231.612 457.86 234.912 455.643 238.568 454.146C242.223 452.649 246.156 451.905 250.121 451.96L270.235 451.96ZM250.281 471.434C248.984 471.419 247.698 471.664 246.502 472.153C245.306 472.642 244.226 473.366 243.327 474.279C241.46 476.113 240.411 478.594 240.411 481.179C240.411 483.765 241.46 486.246 243.327 488.08C244.226 488.993 245.306 489.716 246.502 490.206C247.698 490.695 248.984 490.939 250.281 490.924C251.596 490.946 252.901 490.704 254.116 490.215C255.331 489.726 256.431 488.999 257.347 488.08C258.283 487.203 259.024 486.149 259.526 484.981C260.027 483.814 260.278 482.559 260.262 481.293L260.262 471.552L250.281 471.434Z" fill="white"/>
<path d="M271.033 325.002C273.708 325.012 276.272 326.054 278.164 327.901C280.056 329.747 281.123 332.249 281.134 334.86L281.134 354.452C281.185 358.317 280.428 362.151 278.91 365.721C277.391 369.29 275.142 372.52 272.301 375.212C269.417 378.144 265.922 380.436 262.051 381.934C258.18 383.432 254.025 384.101 249.866 383.895C242.568 383.666 235.613 380.814 230.338 375.886C227.412 373.182 225.07 369.935 223.45 366.334C221.83 362.734 220.965 358.853 220.905 354.921C220.845 350.99 221.592 347.086 223.102 343.44C224.612 339.794 226.853 336.48 229.696 333.693C232.431 330.898 235.728 328.684 239.379 327.189C243.03 325.694 246.959 324.949 250.918 325.002L271.033 325.002ZM251.079 344.476C249.782 344.461 248.496 344.706 247.3 345.195C246.104 345.684 245.023 346.408 244.125 347.321C242.257 349.155 241.209 351.635 241.209 354.221C241.209 356.807 242.257 359.288 244.125 361.121C245.023 362.035 246.104 362.758 247.3 363.247C248.496 363.737 249.782 363.981 251.079 363.966C252.393 363.988 253.698 363.746 254.913 363.257C256.128 362.768 257.228 362.041 258.145 361.121C259.08 360.245 259.822 359.19 260.323 358.023C260.824 356.856 261.075 355.6 261.06 354.335L261.06 344.594L251.079 344.476Z" fill="white"/>
<path d="M219.067 396.629C217.883 398.91 217.675 401.557 218.49 403.987C219.304 406.418 221.074 408.434 223.411 409.591L255.434 425.445C256.219 425.831 257.053 426.113 257.915 426.283C258.939 426.672 260.028 426.874 261.127 426.879L273.822 426.879C274.993 426.88 276.153 426.656 277.235 426.219C278.317 425.782 279.301 425.142 280.129 424.334C280.958 423.526 281.615 422.567 282.063 421.511C282.512 420.455 282.743 419.323 282.743 418.18L282.743 417.553C282.743 416.41 282.512 415.278 282.063 414.222C281.615 413.166 280.958 412.207 280.129 411.399C279.301 410.591 278.317 409.951 277.235 409.514C276.153 409.077 274.993 408.853 273.822 408.854L265.374 408.854C265.045 408.632 264.702 408.43 264.347 408.251L232.348 392.397C230.011 391.243 227.301 391.04 224.811 391.834C222.322 392.627 220.256 394.351 219.067 396.629Z" fill="white"/>
<path d="M245.554 423.307L230.908 416.05C229.027 415.121 226.845 414.958 224.842 415.597C222.838 416.236 221.176 417.625 220.22 419.459V419.459C219.268 421.295 219.101 423.424 219.756 425.38C220.411 427.335 221.834 428.958 223.713 429.89L238.359 437.139C239.29 437.602 240.305 437.882 241.346 437.962C242.388 438.043 243.435 437.922 244.429 437.607C245.422 437.292 246.342 436.79 247.137 436.128C247.931 435.466 248.585 434.658 249.059 433.75C249.534 432.841 249.82 431.851 249.902 430.835C249.985 429.818 249.861 428.796 249.539 427.826C249.216 426.857 248.701 425.959 248.023 425.183C247.345 424.408 246.517 423.77 245.586 423.307L245.554 423.307Z" fill="white"/>
<path d="M229.762 436.904L228.357 436.207C227.745 435.903 227.077 435.72 226.393 435.668C225.708 435.616 225.02 435.696 224.367 435.905C223.714 436.113 223.11 436.445 222.589 436.881C222.068 437.318 221.64 437.85 221.331 438.448L221.21 438.691C220.586 439.897 220.477 441.295 220.907 442.579C221.338 443.863 222.273 444.928 223.507 445.541L224.904 446.238C226.14 446.848 227.574 446.954 228.891 446.534C230.208 446.114 231.301 445.202 231.93 443.997L232.05 443.754C232.361 443.157 232.548 442.507 232.601 441.84C232.654 441.173 232.572 440.503 232.36 439.866C232.147 439.23 231.808 438.641 231.363 438.133C230.917 437.625 230.373 437.207 229.762 436.904V436.904Z" fill="white"/>
</g>
<defs>
<filter id="filter0_d_507_12767" x="-4" y="0" width="508" height="908" filterUnits="userSpaceOnUse" color-interpolation-filters="sRGB">
<feFlood flood-opacity="0" result="BackgroundImageFix"/>
<feColorMatrix in="SourceAlpha" type="matrix" values="0 0 0 0 0 0 0 0 0 0 0 0 0 0 0 0 0 0 127 0" result="hardAlpha"/>
<feOffset dy="4"/>
<feGaussianBlur stdDeviation="2"/>
<feComposite in2="hardAlpha" operator="out"/>
<feColorMatrix type="matrix" values="0 0 0 0 0 0 0 0 0 0 0 0 0 0 0 0 0 0 0.25 0"/>
<feBlend mode="normal" in2="BackgroundImageFix" result="effect1_dropShadow_507_12767"/>
<feBlend mode="normal" in="SourceGraphic" in2="effect1_dropShadow_507_12767" result="shape"/>
</filter>
<linearGradient id="paint0_linear_507_12767" x1="471.306" y1="158.407" x2="-8.32003" y2="184.756" gradientUnits="userSpaceOnUse">
<stop stop-color="#0891F2"/>
<stop offset="1" stop-color="#055EEA"/>
</linearGradient>
<clipPath id="clip0_507_12767">
<rect width="500" height="900" fill="white"/>
</clipPath>
</defs>
</svg>
